PathFileType  4	(X/Y/Z) C:\Users\antoi\Documents\MyRepositories\mobilecap\ResultsAnalysis
DataRate	CameraRate	NumFrames	NumMarkers	Units	OrigDataRate	OrigDataStartFrame	OrigNumFrames
100.0	100.0	7	51	mm	100.0	865	1383
Frame#	Time	r_knee			r_shank_antsup			r_ankle			r_calc			r_5meta			r_toe			L_knee			L_shank_antsup			L_ankle			L_calc			L_5meta			L_toe			r_sh2			r_sh3			r_sh4			L_sh2			L_sh3			r_thigh1			r_thigh2			r_thigh3			r_thigh4			r_thigh5			L_thigh1			L_thigh2			L_thigh3			L_thigh4			r.ASIS			r.PSIS			L.ASIS			L.PSIS			C7			R_Shoulder			L_Shoulder			R_Sternum			L_Sternum			R_humerus			R_elbow_med			R_elbow_lat			R_forearm			R_wrist_radius			R_wrist_ulna			L_humerus			L_elbow_med			L_elbow_lat			L_forearm			L_wrist_radius			L_wrist_ulna			R_HJC			L_HJC			R_HJC_reg			L_HJC_reg			
		X1	Y1	Z1	X2	Y2	Z2	X3	Y3	Z3	X4	Y4	Z4	X5	Y5	Z5	X6	Y6	Z6	X7	Y7	Z7	X8	Y8	Z8	X9	Y9	Z9	X10	Y10	Z10	X11	Y11	Z11	X12	Y12	Z12	X13	Y13	Z13	X14	Y14	Z14	X15	Y15	Z15	X16	Y16	Z16	X17	Y17	Z17	X18	Y18	Z18	X19	Y19	Z19	X20	Y20	Z20	X21	Y21	Z21	X22	Y22	Z22	X23	Y23	Z23	X24	Y24	Z24	X25	Y25	Z25	X26	Y26	Z26	X27	Y27	Z27	X28	Y28	Z28	X29	Y29	Z29	X30	Y30	Z30	X31	Y31	Z31	X32	Y32	Z32	X33	Y33	Z33	X34	Y34	Z34	X35	Y35	Z35	X36	Y36	Z36	X37	Y37	Z37	X38	Y38	Z38	X39	Y39	Z39	X40	Y40	Z40	X41	Y41	Z41	X42	Y42	Z42	X43	Y43	Z43	X44	Y44	Z44	X45	Y45	Z45	X46	Y46	Z46	X47	Y47	Z47	X48	Y48	Z48	X49	Y49	Z49	X50	Y50	Z50	X51	Y51	Z51	

865	8.64000000	-271.59167	457.91917	-417.28352	-246.30587	393.17995	-387.69520	-279.76473	94.05871	-424.94443	-343.50164	57.13420	-468.32086	-178.47650	47.45848	-391.37004	-132.68101	71.23538	-442.10970	-274.09357	457.31543	-823.40429	-228.68466	396.23936	-834.04364	-281.58997	96.54487	-809.29420	-349.44030	61.38206	-759.00670	-190.73723	44.46101	-837.34713	-139.86414	70.00901	-786.80391	-250.59192	282.05733	-384.15684	-318.32672	394.15111	-408.01709	-330.35720	278.59467	-408.15656	-317.27500	406.00384	-844.05033	-318.13390	283.75205	-844.79136	-549.39373	574.69814	-478.49536	-441.94081	564.80342	-450.54692	-432.42754	524.87229	-398.16616	-574.39511	490.60083	-403.09470	-458.46584	473.75442	-391.74444	-540.88333	560.20638	-788.02458	-404.29512	551.49916	-800.64128	-555.42217	449.14819	-822.49811	-413.52045	449.10515	-833.85322	-599.44081	590.31784	-488.20799	-776.79365	554.98596	-565.39994	-595.35404	586.60170	-743.43820	-776.96458	549.14031	-673.05163	-649.38689	1032.32245	-606.87771	-596.37997	974.24479	-454.52926	-589.15678	977.23455	-771.89910	-533.66423	935.39926	-588.56020	-534.68518	935.45480	-633.79629	-638.65520	753.00388	-357.44190	-683.23625	645.97825	-408.66622	-670.45950	677.32120	-333.75946	-555.66088	683.73155	-352.94711	-449.02047	691.13146	-386.38642	-444.98840	646.43993	-379.88443	-580.24226	845.79574	-827.06449	-653.21278	634.28659	-791.12142	-656.39072	649.78438	-863.37189	-548.50316	686.23647	-864.12946	-440.98511	723.60565	-833.97963	-426.50983	688.67752	-836.69100	-640.15524	499.15696	-515.72816	-633.76523	499.70726	-715.91473	-635.18597	498.09744	-519.17417	-635.45405	488.95693	-687.41481	
866	8.65000000	-271.38503	457.90896	-417.37330	-246.13895	393.26640	-387.86753	-279.70620	94.08716	-424.91732	-343.43989	57.23497	-468.25776	-178.37458	47.34525	-391.44048	-132.59924	71.08298	-442.09133	-273.81902	457.52212	-823.17603	-228.43468	396.41646	-833.91553	-281.17562	96.75141	-809.26465	-349.15073	61.50249	-759.03528	-190.27950	44.76949	-837.46373	-139.58993	70.27641	-786.83758	-250.50711	282.30908	-384.27922	-318.10471	394.43882	-408.03939	-330.26793	278.59485	-408.22095	-316.93305	406.27008	-843.89877	-317.90224	283.95452	-844.71329	-549.27507	574.37254	-478.02025	-441.55093	564.57555	-450.15953	-432.03272	524.86220	-398.16372	-573.97879	490.75924	-403.01600	-458.11559	473.86208	-391.79944	-540.65272	560.18488	-788.12679	-404.09293	551.49669	-800.60228	-555.15134	449.20881	-822.73056	-413.24175	449.14452	-833.66147	-598.01361	589.41226	-488.53114	-775.52059	556.86105	-565.40476	-593.48268	585.08794	-743.01093	-775.97228	550.21321	-672.53604	-640.29834	1032.01668	-607.10943	-588.05874	973.00540	-455.59320	-581.36287	976.19476	-772.07735	-525.70352	933.46973	-589.14247	-527.01083	933.45848	-634.06825	-633.12241	752.69003	-357.56450	-679.14802	646.29065	-408.41657	-666.09869	677.62904	-333.29984	-551.07903	681.61058	-352.58449	-444.20288	686.80684	-385.74198	-441.12123	642.06207	-379.34155	-573.68940	844.76594	-827.34556	-649.62565	632.65950	-793.21454	-651.30554	649.39825	-863.91289	-543.01837	684.82285	-864.67321	-435.18446	720.95937	-834.08057	-421.10601	685.90548	-836.76438	-639.89061	498.92036	-515.32160	-633.38342	498.73567	-715.50518	-635.08370	498.55985	-518.62260	-635.79129	488.15135	-686.30377	
867	8.66000000	-271.17516	457.90342	-417.48605	-246.00042	393.27675	-388.16141	-279.62662	94.07819	-424.85162	-343.37750	57.33265	-468.17404	-178.30892	47.26673	-391.45183	-132.51144	70.89873	-442.05381	-273.51083	457.71282	-822.81797	-228.07473	396.64327	-833.74297	-280.72948	97.01202	-809.27980	-348.81090	61.66250	-759.09080	-189.73762	45.04820	-837.51874	-139.23158	70.48615	-786.77617	-250.40961	282.52659	-384.39078	-317.90440	394.75122	-408.11727	-330.16490	278.73917	-408.20989	-316.58196	406.59210	-843.77732	-317.39302	284.20340	-844.75945	-549.66528	573.94110	-477.00703	-441.37300	564.55824	-449.48917	-431.65431	524.91885	-398.15318	-573.51675	491.15365	-403.05015	-457.78898	473.98325	-391.88508	-540.39479	560.22875	-788.33940	-403.80985	551.53667	-800.52043	-554.83396	449.29772	-823.01617	-412.90100	449.07363	-833.21999	-596.34095	589.21546	-488.64544	-774.25339	558.78718	-565.40675	-591.65456	585.11125	-742.57192	-774.82929	551.68966	-672.36775	-630.60795	1031.45740	-607.26751	-579.11122	971.46284	-456.56071	-573.10539	974.97247	-772.27409	-517.59322	931.06669	-589.57471	-518.88701	931.16069	-634.35201	-627.49624	752.30751	-357.63946	-675.18688	646.61100	-407.85132	-661.64934	677.72356	-333.19150	-546.60065	679.49953	-352.03657	-439.52299	682.43686	-384.91009	-437.40580	637.56900	-378.83848	-566.85973	843.60816	-827.71319	-646.51230	631.18395	-795.14855	-646.20621	649.00170	-864.44800	-537.52929	683.32301	-865.13752	-429.37097	718.43842	-834.35960	-415.66461	683.23289	-837.03195	-639.19212	499.24088	-515.19163	-632.57526	499.03343	-715.37386	-634.59626	499.58173	-518.25485	-635.49656	488.48247	-685.52883	
868	8.67000000	-270.87320	457.88144	-417.67863	-245.86231	393.29034	-388.47027	-279.49777	94.10245	-424.74751	-343.35284	57.40980	-468.09966	-178.29532	47.13864	-391.44133	-132.43300	70.68847	-442.04176	-273.16931	457.86919	-822.38462	-227.61467	396.93173	-833.44248	-280.29337	97.21043	-809.20117	-348.44537	61.85249	-759.24166	-189.12431	45.34227	-837.54457	-138.72743	70.52280	-786.44321	-250.29449	282.68517	-384.41063	-317.76387	394.87060	-408.32196	-330.00472	278.92755	-408.15469	-316.22450	406.79819	-843.46489	-316.50555	284.63269	-845.18414	-549.99770	573.66725	-476.35178	-441.15433	564.68617	-449.25940	-431.25665	525.05853	-398.23826	-573.20996	491.56017	-403.17886	-457.46043	474.06228	-392.02262	-540.09580	560.34426	-788.73349	-403.45599	551.58911	-800.39584	-554.49464	449.32892	-823.13986	-412.49096	449.03946	-832.81988	-594.32382	589.89904	-488.77188	-772.99096	560.80060	-565.59479	-590.17943	586.70773	-742.38891	-773.65626	553.63331	-672.56816	-620.36610	1030.45717	-607.12675	-569.61260	969.74404	-456.85062	-564.45383	973.56633	-772.42613	-509.04569	928.23128	-589.94323	-510.35680	928.52719	-634.86033	-621.77198	751.85887	-357.55688	-671.37650	646.77399	-407.07083	-657.21002	677.89705	-332.90518	-542.13704	677.37509	-351.44977	-435.01011	678.08569	-383.90076	-433.87463	633.06735	-378.14411	-559.77188	842.36143	-828.16091	-643.08703	630.04093	-796.18717	-641.03918	648.56971	-865.04390	-532.04458	681.81164	-865.59007	-423.53642	715.97512	-834.85448	-410.18980	680.67434	-837.51818	-637.99980	500.25017	-515.53298	-631.51838	500.65122	-715.71983	-633.64210	501.20297	-518.26804	-634.68170	490.01039	-685.31428	
869	8.68000000	-270.52275	457.94147	-417.98441	-245.72057	393.35961	-388.71967	-279.33089	94.23312	-424.65644	-343.32350	57.48768	-468.08702	-178.29940	46.96473	-391.40614	-132.36141	70.44252	-442.04632	-272.77176	458.01775	-821.91493	-227.11826	397.24363	-832.93442	-279.77205	97.36842	-809.10343	-348.04158	62.08020	-759.50727	-188.52606	45.62076	-837.50104	-138.16210	70.49925	-785.99762	-250.14135	282.79281	-384.35993	-317.60309	394.88768	-408.53819	-329.81793	279.04285	-408.11603	-315.78813	406.91701	-843.02508	-315.61039	285.11810	-845.68001	-549.67250	573.72758	-476.58297	-440.59264	564.92600	-449.44414	-430.82857	525.22359	-398.43212	-573.01400	491.90909	-403.17681	-457.11386	474.18467	-392.14469	-539.75129	560.48844	-789.11899	-403.06978	551.66212	-800.27958	-554.11196	449.34396	-823.08748	-412.04578	449.16688	-832.68947	-592.20885	590.47493	-488.85664	-771.58155	562.91435	-565.76545	-588.48990	587.37128	-742.55072	-772.40924	555.60959	-672.78908	-609.59417	1028.98154	-606.74824	-559.55088	967.62704	-457.04269	-555.41318	971.95274	-772.53302	-499.85365	925.00968	-590.38459	-501.33531	925.51817	-635.54457	-615.89848	751.28235	-357.28428	-667.65679	646.83663	-406.36913	-652.86603	678.17559	-332.19297	-537.74064	675.13693	-350.86865	-430.65139	673.75046	-382.82259	-430.48330	628.65944	-377.20388	-552.44700	840.97321	-828.59000	-638.80462	629.22506	-796.74791	-635.81662	648.04087	-865.74743	-526.52322	680.39794	-866.23624	-417.66513	713.41992	-835.47327	-404.65174	678.11038	-838.28394	-636.91021	501.18660	-515.74640	-630.56063	501.60424	-715.93685	-632.55983	502.32329	-518.21690	-633.85241	490.91938	-685.29123	
870	8.69000000	-270.19116	458.15437	-418.36566	-245.55263	393.50408	-388.91245	-279.18374	94.39200	-424.63796	-343.22526	57.66044	-468.12176	-178.27937	46.83898	-391.28974	-132.26569	70.15524	-442.00105	-272.32730	458.13031	-821.38953	-226.61636	397.50506	-832.28790	-279.01829	97.78637	-809.56324	-347.60579	62.32401	-759.86189	-187.97329	46.00159	-837.55655	-137.67312	70.59970	-785.65534	-249.98266	282.89133	-384.35155	-317.38035	395.00753	-408.70441	-329.62202	279.21036	-408.15406	-315.21941	407.13991	-842.78072	-315.08933	285.39170	-845.68972	-548.87402	574.04515	-477.19526	-439.96058	565.14640	-449.65157	-430.41596	525.36361	-398.68883	-572.72211	492.36709	-402.92877	-456.80017	474.40066	-392.21838	-539.30394	560.68386	-789.24247	-402.67594	551.74342	-800.13336	-553.67366	449.43547	-823.05052	-411.60885	449.34132	-832.65503	-590.14713	589.90391	-488.85095	-769.94973	565.08743	-565.74860	-585.97874	586.45814	-742.89016	-770.90099	557.58687	-672.99390	-598.00613	1027.31489	-606.67723	-548.82208	964.91749	-457.86146	-545.83639	970.05390	-772.53793	-490.16326	921.41859	-590.92197	-491.75262	922.09877	-636.23195	-609.85634	750.50626	-356.99487	-663.94834	646.93777	-405.84518	-648.56766	678.34504	-331.49968	-533.51257	672.83684	-350.16122	-426.43534	669.37592	-381.86882	-427.13126	624.35993	-376.13840	-544.84092	839.38078	-829.02282	-633.07729	629.05234	-796.79633	-630.59149	647.46012	-866.46867	-520.96995	678.93370	-866.93637	-411.76463	710.75122	-836.13591	-399.05915	675.35172	-839.11386	-636.20896	501.30029	-515.75391	-629.69706	501.35826	-715.94009	-631.70804	502.34393	-518.10289	-633.19099	490.64428	-685.39214	
871	8.70000000	-269.87974	458.34724	-418.69388	-245.32471	393.72851	-389.13286	-279.06720	94.47718	-424.64306	-343.08491	57.95512	-468.07901	-178.22796	46.77557	-391.16491	-132.13422	69.88028	-441.92081	-271.84456	458.22437	-820.87745	-226.07143	397.69583	-831.70391	-278.17461	98.50018	-810.61441	-347.21551	62.50075	-760.27329	-187.43877	46.52193	-837.73248	-137.28314	70.83443	-785.34055	-249.87330	283.06180	-384.43172	-317.16683	395.17127	-408.94113	-329.42200	279.48044	-408.32803	-314.54820	407.50395	-842.75429	-314.67956	285.49122	-845.42872	-548.14519	574.45406	-477.63023	-439.66410	565.13380	-449.69552	-430.00554	525.51100	-399.03578	-572.26699	492.93819	-402.66689	-456.49915	474.72872	-392.27779	-538.72926	560.95326	-789.22725	-402.23866	551.79299	-799.91236	-553.21520	449.60815	-823.15393	-411.15046	449.45724	-832.55126	-588.01358	588.15176	-489.00054	-768.20943	567.35488	-565.76003	-583.91233	585.01641	-743.57756	-769.28464	559.76050	-673.20755	-585.51065	1025.49686	-607.00820	-537.43963	961.73611	-459.01060	-535.61798	967.80897	-772.43558	-480.00502	917.42007	-591.41509	-481.63170	918.27215	-636.84284	-603.68193	749.55918	-356.80846	-660.03331	647.02748	-405.13396	-644.28662	678.45817	-331.04124	-529.41567	670.61916	-349.26843	-422.36920	664.95108	-381.05396	-423.85140	620.12658	-374.95752	-536.87936	837.55752	-829.56290	-625.81023	629.55272	-796.19842	-625.31198	646.91831	-867.12287	-515.40277	677.28823	-867.55057	-405.83505	707.97883	-836.83602	-393.44418	672.39288	-839.93806	-635.77644	500.62046	-516.13207	-629.42679	500.75995	-716.32285	-631.54081	501.70270	-518.27332	-633.21853	489.85402	-685.90462	
